<svg width="37" height="48" viewBox="0 0 37 48" fill="none" xmlns="http://www.w3.org/2000/svg">
<path d="M12.5 48L0.5 36L12.5 24L24.5 36L12.5 48Z" fill="#2CACE8"/>
<path d="M12.5 24L0.5 12L12.5 0L24.5 12L12.5 24Z" fill="#2CACE8"/>
<path d="M12.5 23.9997L24.5 11.9998L36.5 23.9997L24.5 35.9997L12.5 23.9997Z" fill="#0874D3"/>
<path d="M0.5 24L6.5 18L12.5 24L6.5 30L0.5 24Z" fill="#2CACE8"/>
<path d="M12.5 24L18.5 18L24.5 24L18.5 30L12.5 24Z" fill="#014EC0"/>
<path d="M6.5 30L12.5 24L18.5 30L12.5 36L6.5 30Z" fill="#0874D3"/>
<path d="M6.5 18.0002L12.5 12.0002L18.5 18.0002L12.5 24.0002L6.5 18.0002Z" fill="#0874D3"/>
</svg>
